<svg clip-rule="evenodd" fill-rule="evenodd" stroke-linecap="round" stroke-linejoin="round" stroke-miterlimit="1.5" viewBox="0 0 512 512" xmlns="http://www.w3.org/2000/svg" xmlns:xlink="http://www.w3.org/1999/xlink"><linearGradient id="a" gradientTransform="matrix(4.58333 439.953 -439.953 4.58333 260 40)" gradientUnits="userSpaceOnUse" x1="0" x2="1" y1="0" y2="0"><stop offset="0" stop-color="#4c4e56"/><stop offset=".83" stop-color="#5f5a59"/><stop offset="1" stop-color="#6e645c"/></linearGradient><circle cx="260" cy="260" fill="url(#a)" r="220" stroke="#333236" stroke-width="20.78" transform="matrix(1.09091 0 0 1.09091 -28.6364 -26.6364)"/><path d="m260 40 49.393 152.016h159.839l-129.312 93.951 49.393 152.017-129.313-93.951-129.313 93.951 49.393-152.017-129.312-93.951h159.839zm0 70.777 33.503 103.111h108.416s-87.711 63.725-87.711 63.725l33.503 103.111s-87.711-63.726-87.711-63.726l-87.711 63.726s33.503-103.111 33.503-103.111l-87.711-63.725h108.416z" fill="#ff1919" transform="matrix(1.03636 0 0 1.03636 -13.4545 -12.4545)"/></svg>