<?xml version="1.0" encoding="UTF-8" standalone="no"?>
<svg
   xmlns:dc="http://purl.org/dc/elements/1.1/"
   xmlns:cc="http://creativecommons.org/ns#"
   xmlns:rdf="http://www.w3.org/1999/02/22-rdf-syntax-ns#"
   xmlns:svg="http://www.w3.org/2000/svg"
   xmlns="http://www.w3.org/2000/svg"
   xmlns:sodipodi="http://sodipodi.sourceforge.net/DTD/sodipodi-0.dtd"
   xmlns:inkscape="http://www.inkscape.org/namespaces/inkscape"
   viewBox="0 0 1854.54 295"
   preserveAspectRatio="xMinYMid"
   width="1854.54"
   height="295"
   version="1.1"
   id="svg78"
   sodipodi:docname="select-bg-rtl.svg"
   inkscape:version="1.0.1 (c497b03c, 2020-09-10)">
  <metadata
     id="metadata84">
    <rdf:RDF>
      <cc:Work
         rdf:about="">
        <dc:format>image/svg+xml</dc:format>
        <dc:type
           rdf:resource="http://purl.org/dc/dcmitype/StillImage" />
      </cc:Work>
    </rdf:RDF>
  </metadata>
  <defs
     id="defs82" />
  <sodipodi:namedview
     pagecolor="#ffffff"
     bordercolor="#666666"
     borderopacity="1"
     objecttolerance="10"
     gridtolerance="10"
     guidetolerance="10"
     inkscape:pageopacity="0"
     inkscape:pageshadow="2"
     inkscape:window-width="1675"
     inkscape:window-height="787"
     id="namedview80"
     showgrid="false"
     inkscape:zoom="158.46948"
     inkscape:cx="1854.6622"
     inkscape:cy="223.56377"
     inkscape:window-x="0"
     inkscape:window-y="25"
     inkscape:window-maximized="0"
     inkscape:current-layer="svg78"
     inkscape:document-rotation="0" />
  <path
     d="m 29.444202,145.7 -6.9,6.9 c -0.1,0.1 -0.2,0.1 -0.3,0.1 -0.1,0 -0.2,0 -0.3,-0.1 l -6.9,-6.9 c -0.1,-0.1 -0.1,-0.2 -0.1,-0.3 0,-0.1 0,-0.2 0.1,-0.3 l 0.7,-0.7 c 0.1,-0.1 0.2,-0.1 0.3,-0.1 0.1,0 0.2,0 0.3,0.1 l 5.8,5.8 5.8,-5.8 c 0.1,-0.1 0.2,-0.1 0.3,-0.1 0.1,0 0.2,0 0.3,0.1 l 0.7,0.7 c 0.1,0.1 0.1,0.2 0.1,0.3 0.3,0.1 0.2,0.2 0.1,0.3 z"
     fill="#000"
     id="path74"
     style="fill:#ffffff" />
  <rect
     width="1810"
     height="295"
     fill="#fff"
     id="rect76"
     style="fill:#343a40;fill-opacity:1"
     x="-1854.5438"
     y="0"
     transform="scale(-1,1)" />
</svg>
